<svg width="25" height="25" viewBox="0 0 25 25" fill="none" xmlns="http://www.w3.org/2000/svg">
<path d="M18.4497 13.4817C18.4605 12.6384 18.6845 11.8116 19.1008 11.0782C19.517 10.3448 20.1121 9.72855 20.8305 9.28688C20.3741 8.63508 19.772 8.09867 19.0721 7.72026C18.3721 7.34185 17.5935 7.13187 16.7982 7.10699C15.1017 6.92891 13.457 8.12216 12.5925 8.12216C11.7112 8.12216 10.3802 7.12467 8.94682 7.15416C8.0197 7.18411 7.11614 7.45371 6.3242 7.93669C5.53225 8.41967 4.87891 9.09956 4.42785 9.91011C2.47394 13.293 3.93138 18.2647 5.80306 20.9992C6.73951 22.3382 7.83394 23.8339 9.26598 23.7808C10.6673 23.7227 11.1907 22.8873 12.8822 22.8873C14.5581 22.8873 15.0491 23.7808 16.5102 23.7471C18.0139 23.7227 18.9613 22.4022 19.8649 21.0505C20.5377 20.0964 21.0555 19.0419 21.399 17.9262C20.5253 17.5567 19.7798 16.9382 19.2554 16.1478C18.7309 15.3575 18.4507 14.4302 18.4497 13.4817Z" fill="#6460BE"/>
<path d="M15.6899 5.30879C16.5098 4.32455 16.9137 3.05948 16.8159 1.78223C15.5633 1.91379 14.4062 2.51245 13.5753 3.45892C13.169 3.9213 12.8578 4.45922 12.6596 5.04193C12.4613 5.62464 12.3798 6.24071 12.4198 6.85492C13.0463 6.86137 13.6661 6.72558 14.2326 6.45776C14.799 6.18994 15.2973 5.79709 15.6899 5.30879Z" fill="#6460BE"/>
</svg>
