<svg width="25" height="25" viewBox="0 0 25 25" fill="none" xmlns="http://www.w3.org/2000/svg">
<path d="M12.2727 11.8093L2.09375 22.3536C2.09375 22.3536 2.09375 22.3575 2.09375 22.3594C2.40541 23.5041 3.47624 24.3466 4.74886 24.3466C5.2583 24.3466 5.73378 24.212 6.14334 23.978L6.1753 23.9585L17.6328 17.5056L12.2707 11.8074L12.2727 11.8093Z" fill="white" stroke="#6460BE" stroke-width="0.5"/>
<path d="M22.5695 10.0137L22.5596 10.0079L17.6129 7.20947L12.041 12.0496L17.6329 17.506L22.5516 14.7349C23.4146 14.2786 24 13.3913 24 12.3695C24 11.3476 23.4226 10.4701 22.5675 10.0137" fill="white"/>
<path d="M22.5695 10.0137L22.5596 10.0079L17.6129 7.20947L12.041 12.0496L17.6329 17.506L22.5516 14.7349C23.4146 14.2786 24 13.3913 24 12.3695C24 11.3476 23.4226 10.4701 22.5675 10.0137" stroke="#6460BE" stroke-width="0.5"/>
<path d="M2.0939 2.3396C2.03196 2.55996 2 2.79203 2 3.02994V21.6632C2 21.9011 2.03196 22.1332 2.0939 22.3536L12.6204 12.0784L2.0919 2.3396H2.0939Z" fill="white" stroke="#6460BE" stroke-width="0.5"/>
<path d="M12.3466 12.3477L17.6148 7.20716L6.17131 0.730851C5.75576 0.487088 5.27029 0.34668 4.75086 0.34668C3.48024 0.34668 2.40741 1.19108 2.09375 2.33774C2.09375 2.33774 2.09375 2.33774 2.09375 2.33969L12.3486 12.3477H12.3466Z" fill="white" stroke="#6460BE" stroke-width="0.5"/>
</svg>
