<svg width="104" height="54" viewBox="0 0 104 54" fill="none" xmlns="http://www.w3.org/2000/svg">
<path d="M38.7552 31.9367C39.9877 29.3029 40.4624 26.3103 40.005 23.4127C39.6117 20.9209 38.789 18.8785 37.4898 17.1687C36.4015 15.7365 34.981 14.5555 33.1472 13.5583C30.9776 12.3784 28.4499 11.7988 25.8382 11.882C23.2097 11.9657 20.6031 12.7203 18.3002 14.0642C15.6122 15.6327 13.6801 17.7101 12.5575 20.2387C12.4523 20.4758 12.3544 20.7166 12.2631 20.9609C12.1557 21.1216 12.0916 21.3066 12.0754 21.4971C11.4887 23.2986 11.2609 25.3 11.3808 27.5737C11.4474 28.8363 11.7147 30.0975 12.1755 31.3222C12.2499 31.5199 12.3296 31.716 12.4135 31.9104C12.4158 31.9159 12.4181 31.9214 12.4205 31.9268C12.8386 32.8921 13.3727 33.8152 14.0137 34.678C14.7835 35.7141 15.6895 36.64 16.7066 37.43C17.748 38.2389 18.8846 38.8883 20.0845 39.3601C21.7287 40.0067 23.5083 40.3349 25.3278 40.3349C26.1328 40.3349 26.9456 40.2707 27.7579 40.1414C30.3888 39.7226 32.8225 38.6534 34.7962 37.0493L34.7962 37.0493C36.4462 35.7081 37.7632 33.9974 38.6813 32.0922C38.7099 32.0422 38.7347 31.9902 38.7552 31.9367ZM37.7501 23.7665C37.771 23.8988 37.7895 24.0316 37.8059 24.1647C34.8687 25.4384 31.6841 26.9286 28.5346 28.4182L37.4687 22.3895C37.5806 22.8285 37.6744 23.287 37.7501 23.7665ZM37.0665 30.0838C37.0005 30.2581 36.9306 30.4302 36.8576 30.6005C35.2989 31.1133 32.631 32.1137 29.8884 33.2152C29.9991 33.1347 30.1096 33.0544 30.2201 32.9741C32.9717 30.9737 35.7974 28.9193 37.7884 27.2212C37.6613 28.1887 37.4201 29.1504 37.0665 30.0838ZM36.5895 20.0133L24.471 25.3631L35.2542 18.0343C35.3995 18.1998 35.5382 18.3692 35.6703 18.5431C36.0172 18.9996 36.323 19.4887 36.5895 20.0133ZM16.3171 33.9143C16.1548 33.7224 15.9982 33.5255 15.8479 33.3233C15.5369 32.9046 15.2576 32.472 15.0102 32.0287L26.8707 26.7928L16.3171 33.9143ZM14.2071 22.3251C17.1335 20.5908 20.5675 18.851 23.5928 17.4055C22.9243 17.8613 22.2544 18.2993 21.6224 18.7124C20.996 19.1219 20.4044 19.5086 19.8629 19.8795C18.356 20.9118 16.8931 21.9354 15.5618 23.1086C14.8481 23.7376 14.2275 24.3645 13.6934 24.9969C13.7772 24.0429 13.9478 23.1555 14.2071 22.3251ZM13.8117 28.7323C15.4418 27.8538 17.0302 26.9728 18.567 26.1204C19.8735 25.3956 21.1626 24.6805 22.4551 23.9788L14.0381 29.6994C13.9468 29.3796 13.8713 29.0569 13.8117 28.7323ZM33.2342 16.2725C27.9915 18.3791 23.5501 20.7609 19.0012 23.276C19.6851 22.7707 20.4078 22.2676 21.1555 21.7554C21.6766 21.3985 22.2583 21.0182 22.8741 20.6157C24.2442 19.72 25.7972 18.7048 27.1708 17.6209C28.4619 16.6021 29.4306 15.6487 30.1078 14.7278C30.7865 14.9448 31.4384 15.2215 32.0542 15.5563C32.4738 15.7845 32.8665 16.0229 33.2342 16.2725ZM19.4532 16.0284C21.1709 15.0261 23.0834 14.4062 25.0319 14.2143C22.4774 15.3938 19.3463 16.9013 16.3658 18.5001C16.3899 18.4731 16.4137 18.4459 16.4381 18.4192C17.2529 17.5247 18.2673 16.7204 19.4532 16.0284ZM18.2354 35.7307C21.2963 34.3677 24.5618 32.8202 27.736 31.316C28.5803 30.9159 29.431 30.5127 30.2824 30.1109C29.8144 30.4523 29.3437 30.7945 28.8752 31.1351C25.7117 33.435 22.7201 35.6099 20.9449 37.2517C20.9373 37.2487 20.9296 37.2459 20.922 37.2429C19.9729 36.8697 19.0699 36.3611 18.2354 35.7307ZM24.4287 38.0234C25.8463 37.3627 27.7411 36.5454 29.9243 35.6571C30.0162 35.6197 30.1085 35.5822 30.2005 35.545C29.2633 36.2951 28.3246 37.0855 27.4523 37.8827C26.4518 38.046 25.4337 38.0945 24.4287 38.0234Z" fill="#F9B800"/>
<path d="M25.758 9.53437C26.3884 9.53437 26.8994 9.02491 26.8994 8.39641V1.13649C26.8994 0.508 26.3884 -0.00146484 25.758 -0.00146484C25.1277 -0.00146484 24.6167 0.508 24.6167 1.13649V8.39641C24.6167 9.02491 25.1277 9.53437 25.758 9.53437Z" fill="#F9B800"/>
<path d="M17.9966 10.2592C18.1787 10.6974 18.6036 10.9619 19.0515 10.9619C19.197 10.9619 19.345 10.934 19.4878 10.875C20.0702 10.6345 20.3468 9.96883 20.1055 9.38819L18.7705 6.17483C18.5293 5.59422 17.8618 5.31845 17.2793 5.55896C16.697 5.79948 16.4204 6.46513 16.6616 7.04577L17.9966 10.2592Z" fill="#F9B800"/>
<path d="M12.5905 14.5077C12.8134 14.7299 13.1054 14.841 13.3976 14.841C13.6896 14.841 13.9818 14.7298 14.2046 14.5077C14.6504 14.0633 14.6504 13.3428 14.2046 12.8984L9.05579 7.7648C8.61008 7.32041 7.88741 7.32044 7.44173 7.7648C6.99599 8.20919 6.99599 8.92972 7.44173 9.37411L12.5905 14.5077Z" fill="#F9B800"/>
<path d="M5.22806 18.8398L9.23559 20.4948C9.37845 20.5538 9.52633 20.5817 9.67191 20.5817C10.1198 20.5817 10.5448 20.3172 10.7268 19.879C10.968 19.2983 10.6915 18.6327 10.1091 18.3922L6.10159 16.7371C5.51931 16.4966 4.85162 16.7723 4.61036 17.353C4.36916 17.9336 4.64572 18.5993 5.22806 18.8398Z" fill="#F9B800"/>
<path d="M9.56323 26.1709C9.56323 25.5424 9.05222 25.0329 8.42189 25.0329H1.14037C0.510004 25.0329 -0.000976562 25.5424 -0.000976562 26.1709C-0.000976562 26.7993 0.510004 27.3088 1.14037 27.3088H8.42189C9.05222 27.3088 9.56323 26.7993 9.56323 26.1709Z" fill="#F9B800"/>
<path d="M32.0354 10.875C32.1783 10.934 32.3262 10.9619 32.4718 10.9619C32.9196 10.9619 33.3446 10.6973 33.5267 10.2591L34.8616 7.04577C35.1029 6.46513 34.8263 5.79947 34.2439 5.55896C33.6616 5.31847 32.9939 5.59418 32.7527 6.17482L31.4177 9.38818C31.1765 9.96879 31.4531 10.6344 32.0354 10.875Z" fill="#F9B800"/>
<path d="M38.1233 14.841C38.4154 14.841 38.7074 14.7299 38.9303 14.5077L44.0791 9.37412C44.5249 8.92973 44.5249 8.2092 44.0791 7.76481C43.6334 7.32042 42.9107 7.32042 42.4651 7.76481L37.3162 12.8984C36.8705 13.3428 36.8705 14.0633 37.3162 14.5077C37.5391 14.7299 37.8312 14.841 38.1233 14.841Z" fill="#F9B800"/>
<path d="M40.7962 19.879C40.9782 20.3172 41.4032 20.5818 41.8511 20.5818C41.9966 20.5818 42.1446 20.5538 42.2874 20.4948L46.2949 18.8398C46.8773 18.5993 47.1538 17.9336 46.9126 17.353C46.6714 16.7723 46.0036 16.4966 45.4214 16.7371L41.4139 18.3922C40.8315 18.6327 40.5549 19.2984 40.7962 19.879Z" fill="#F9B800"/>
<path d="M50.3797 25.0329H43.0981C42.4678 25.0329 41.9568 25.5424 41.9568 26.1709C41.9568 26.7993 42.4678 27.3088 43.0981 27.3088H50.3797C51.01 27.3088 51.521 26.7993 51.521 26.1709C51.521 25.5424 51.01 25.0329 50.3797 25.0329Z" fill="#F9B800"/>
<path d="M25.758 42.808C25.1277 42.808 24.6167 43.3175 24.6167 43.946V51.2059C24.6167 51.8344 25.1277 52.3439 25.758 52.3439C26.3884 52.3439 26.8994 51.8344 26.8994 51.2059V43.946C26.8994 43.3175 26.3884 42.808 25.758 42.808Z" fill="#F9B800"/>
<path d="M19.4878 41.4669C18.9055 41.2264 18.2378 41.5022 17.9966 42.0828L16.6616 45.2961C16.4204 45.8768 16.697 46.5424 17.2793 46.7829C17.4222 46.8419 17.5701 46.8698 17.7157 46.8698C18.1635 46.8698 18.5885 46.6053 18.7705 46.1671L20.1056 42.9537C20.3468 42.3731 20.0702 41.7074 19.4878 41.4669Z" fill="#F9B800"/>
<path d="M12.5905 37.8343L7.44173 42.9679C6.99599 43.4123 6.99599 44.1328 7.44173 44.5772C7.66458 44.7994 7.95668 44.9105 8.24877 44.9105C8.54087 44.9105 8.83297 44.7994 9.05582 44.5772L14.2046 39.4437C14.6504 38.9993 14.6504 38.2787 14.2046 37.8344C13.7589 37.3899 13.0362 37.3899 12.5905 37.8343Z" fill="#F9B800"/>
<path d="M10.7268 32.4629C10.4856 31.8823 9.81805 31.6065 9.23559 31.8471L5.22806 33.5021C4.64569 33.7426 4.36916 34.4082 4.61036 34.9889C4.79244 35.4271 5.21739 35.6916 5.66528 35.6916C5.8108 35.6916 5.95877 35.6637 6.1016 35.6047L10.1091 33.9497C10.6915 33.7092 10.968 33.0436 10.7268 32.4629Z" fill="#F9B800"/>
<path d="M33.5267 42.0828C33.2855 41.5022 32.6179 41.2264 32.0355 41.4669C31.4531 41.7074 31.1765 42.3731 31.4177 42.9537L32.7527 46.1671C32.9348 46.6053 33.3597 46.8698 33.8076 46.8698C33.9532 46.8698 34.1011 46.8419 34.2439 46.7829C34.8263 46.5424 35.1029 45.8768 34.8616 45.2961L33.5267 42.0828Z" fill="#F9B800"/>
<path d="M38.9303 37.8343C38.4846 37.3899 37.7619 37.39 37.3162 37.8343C36.8705 38.2787 36.8705 38.9993 37.3162 39.4436L42.4651 44.5772C42.6879 44.7994 42.98 44.9105 43.2721 44.9105C43.5642 44.9105 43.8563 44.7993 44.0792 44.5772C44.5249 44.1328 44.5249 43.4123 44.0792 42.9679L38.9303 37.8343Z" fill="#F9B800"/>
<path d="M46.2949 33.5021L42.2874 31.847C41.7051 31.6066 41.0373 31.8823 40.7962 32.4629C40.5549 33.0435 40.8315 33.7092 41.4139 33.9497L45.4214 35.6047C45.5643 35.6637 45.7121 35.6916 45.8577 35.6916C46.3056 35.6916 46.7306 35.4271 46.9126 34.9889C47.1538 34.4082 46.8773 33.7426 46.2949 33.5021Z" fill="#F9B800"/>
<path d="M57.0963 20.2237V13.3826C57.0963 11.6934 57.6723 10.3759 58.8244 9.42995C59.9764 8.48402 61.5181 8.01105 63.4495 8.01105C65.4148 8.01105 66.9735 8.45024 68.1255 9.3286C69.2776 10.1732 69.8536 11.288 69.8536 12.6732V18.9569C69.8536 19.565 69.4131 19.9872 68.5321 20.2237C68.0578 20.3589 67.5834 20.4264 67.109 20.4264C66.6346 20.4264 66.1603 20.3758 65.6859 20.2745C65.7875 19.4637 65.8383 18.6021 65.8383 17.69V13.3826C65.8383 12.7407 65.6181 12.2509 65.1776 11.913C64.7371 11.5414 64.1611 11.3556 63.4495 11.3556C62.738 11.3556 62.1619 11.5414 61.7214 11.913C61.3148 12.2509 61.1115 12.7407 61.1115 13.3826V19.3116C61.1115 20.494 61.5012 21.3217 62.2805 21.7947L67.6681 25.2406C69.1928 26.1865 69.9552 27.6392 69.9552 29.5987V36.5918C69.9552 38.2811 69.3623 39.5986 68.1763 40.5446C66.9904 41.4905 65.4148 41.9635 63.4495 41.9635C61.5181 41.9635 59.9595 41.5411 58.7735 40.6965C57.5876 39.8182 56.9946 38.6865 56.9946 37.3014V31.0176C56.9946 30.4095 57.4351 29.9872 58.3161 29.7507C58.7905 29.6156 59.2649 29.548 59.7392 29.548C60.2136 29.548 60.688 29.5987 61.1624 29.7C61.0607 30.5108 61.0099 31.3723 61.0099 32.2845V36.5918C61.0099 37.2 61.2471 37.6898 61.7214 38.0614C62.1958 38.4331 62.7888 38.6189 63.5004 38.6189C64.2119 38.6189 64.7879 38.4331 65.2284 38.0614C65.7028 37.6898 65.94 37.2 65.94 36.5918V30.8656C65.94 29.548 65.4826 28.6021 64.5677 28.0278L59.1801 24.5312C57.7909 23.6528 57.0963 22.217 57.0963 20.2237ZM82.4307 12.6732C82.4307 11.0178 82.312 9.63265 82.0748 8.5178C83.227 8.38267 84.3959 8.3151 85.5819 8.3151C86.1579 8.3151 86.4459 8.56848 86.4459 9.07523V36.5918C86.4459 38.2811 85.8699 39.5986 84.7178 40.5446C83.5658 41.4905 82.0071 41.9635 80.0418 41.9635C78.1105 41.9635 76.5687 41.5411 75.4166 40.6965C74.2646 39.8182 73.6886 38.6865 73.6886 37.3014V33.8554C73.6886 33.2473 74.1291 32.825 75.01 32.5885C75.4844 32.4534 75.9588 32.3858 76.4331 32.3858C76.9075 32.3858 77.382 32.4365 77.8564 32.5378C77.7547 33.3486 77.7039 34.2101 77.7039 35.1223V36.5918C77.7039 37.2338 77.9241 37.7406 78.3646 38.1122C78.8051 38.45 79.3811 38.6189 80.0927 38.6189C80.8042 38.6189 81.3633 38.45 81.7699 38.1122C82.2104 37.7406 82.4307 37.2338 82.4307 36.5918V28.6865C81.5496 29.5649 80.3637 30.0041 78.8729 30.0041C75.4166 30.0041 73.6886 28.3825 73.6886 25.1393V12.8252C73.6886 12.1157 73.5361 11.6259 73.2312 11.3556C72.9601 11.0516 72.4688 10.8995 71.7571 10.8995C71.7571 8.97388 72.8415 8.01105 75.01 8.01105C76.8059 8.01105 77.7039 9.17658 77.7039 11.5076V24.8352C77.7039 26.0514 78.3138 26.6595 79.5336 26.6595C80.7873 26.6595 81.7529 26.0684 82.4307 24.8859V12.6732ZM97.2249 11.8624C96.3101 11.8624 95.3952 12.3184 94.4804 13.2306V38.1122H96.8183C97.53 38.1122 98.106 37.9433 98.5465 37.6054C98.987 37.2338 99.2072 36.7271 99.2072 36.0851V13.788C99.2072 12.5043 98.5465 11.8624 97.2249 11.8624ZM98.1907 8.5178C101.545 8.5178 103.222 10.1732 103.222 13.484V36.0851C103.222 37.7743 102.629 39.0919 101.444 40.0378C100.292 40.9838 98.7159 41.4567 96.7167 41.4567H90.4651V13.4333C90.4651 12.6901 90.3296 12.1664 90.0585 11.8624C89.7874 11.5245 89.2961 11.3556 88.5846 11.3556C88.5507 10.4772 88.7879 9.78468 89.2961 9.27793C89.8044 8.77118 90.6176 8.5178 91.7357 8.5178C92.8879 8.5178 93.6841 9.07523 94.1246 10.1901C95.4461 9.07523 96.8014 8.5178 98.1907 8.5178Z" fill="#6460BE"/>
<path d="M58.9008 50.0535C58.9008 50.4518 59.0784 50.651 59.4335 50.651C59.7976 50.651 59.9796 50.4342 59.9796 50.0004V49.4559C59.9796 49.1284 59.8642 48.8937 59.6333 48.752L58.4612 48.0482C58.1149 47.8357 57.9418 47.4772 57.9418 46.9725V46.043C57.9418 45.6535 58.0661 45.3391 58.3147 45.1001C58.5722 44.8522 58.9452 44.7283 59.4335 44.7283C59.9308 44.7283 60.3082 44.8301 60.5657 45.0338C60.8232 45.2374 60.9519 45.5162 60.9519 45.8704V46.7069C60.9519 46.8575 60.8454 46.9593 60.6323 47.0124C60.5257 47.0478 60.4103 47.0655 60.286 47.0655C60.1705 47.0655 60.0551 47.0522 59.9397 47.0256C59.9663 46.8309 59.9796 46.6229 59.9796 46.4015V46.2023C59.9796 45.7862 59.8109 45.5782 59.4735 45.5782C59.1183 45.5782 58.9407 45.7641 58.9407 46.1359V46.7468C58.9407 47.0567 59.0384 47.2647 59.2338 47.3709L60.4059 48.0482C60.7877 48.2607 60.9786 48.6237 60.9786 49.1372V50.1331C60.9786 50.5581 60.8498 50.8945 60.5923 51.1424C60.3437 51.3815 59.9752 51.501 59.4868 51.501C58.9984 51.501 58.6166 51.4036 58.3414 51.2088C58.0661 51.014 57.9285 50.7352 57.9285 50.3722V49.4958C57.9285 49.3452 58.035 49.2434 58.2481 49.1903C58.3547 49.1549 58.4657 49.1372 58.5811 49.1372C58.7054 49.1372 58.8253 49.1504 58.9407 49.177C58.9141 49.3717 58.9008 49.5798 58.9008 49.8012V50.0535ZM63.087 48.938C62.794 49.1328 62.6474 49.4603 62.6474 49.9207C62.6474 50.3722 62.7851 50.5979 63.0603 50.5979C63.3445 50.5979 63.5665 50.4386 63.7263 50.1199V48.513L63.087 48.938ZM63.2335 44.7283C64.228 44.7283 64.7253 45.1665 64.7253 46.043V50.266C64.7253 50.4518 64.7563 50.5847 64.8185 50.6644C64.8895 50.744 65.0183 50.7839 65.2047 50.7839C65.2136 51.014 65.1515 51.1911 65.0183 51.315C64.894 51.439 64.7119 51.501 64.4722 51.501C64.0992 51.501 63.8728 51.3637 63.7929 51.0893C63.5176 51.3637 63.1935 51.501 62.8206 51.501C62.4477 51.501 62.1502 51.3593 61.9282 51.0761C61.7062 50.7927 61.5952 50.4121 61.5952 49.9339C61.5952 49.208 61.9016 48.6591 62.5143 48.2873L63.7263 47.5701V46.1359C63.7263 45.7641 63.5487 45.5782 63.1935 45.5782C62.8472 45.5782 62.6741 45.7862 62.6741 46.2023V46.6406L62.714 47.2647C62.5986 47.2913 62.4787 47.3046 62.3544 47.3046C62.239 47.3046 62.128 47.2869 62.0214 47.2515C61.8083 47.1983 61.7018 47.0965 61.7018 46.946V45.8571C61.7018 45.503 61.8394 45.2285 62.1147 45.0338C62.3988 44.8301 62.7718 44.7283 63.2335 44.7283ZM65.9892 44.7283C66.2379 44.7283 66.4154 44.7991 66.522 44.9408C66.6374 45.0824 66.6951 45.4012 66.6951 45.8969C66.6951 46.3838 66.7573 47.1186 66.8816 48.1013C67.0059 49.0841 67.1436 49.8896 67.2946 50.5183C67.7029 48.7033 67.9072 47.0965 67.9072 45.6978L67.8806 44.8346C68.0493 44.7991 68.2091 44.7814 68.36 44.7814C68.5199 44.7814 68.662 44.7991 68.7863 44.8346C68.9195 44.8699 68.986 44.9585 68.986 45.1001C68.986 45.8527 68.8973 46.8265 68.7197 48.0217C68.5421 49.2168 68.3423 50.173 68.1204 50.8901C68.0227 51.2088 67.8629 51.3681 67.6408 51.3681H66.855C66.633 51.3681 66.4732 51.2088 66.3755 50.8901C66.1801 50.2173 66.0159 49.3939 65.8827 48.4201C65.7584 47.4373 65.6962 46.6184 65.6962 45.9633C65.6962 45.7774 65.6607 45.6445 65.5897 45.5649C65.5275 45.4852 65.4032 45.4454 65.2167 45.4454C65.2078 45.224 65.27 45.0514 65.4032 44.9274C65.5453 44.7947 65.7406 44.7283 65.9892 44.7283ZM71.7403 46.1492C71.7403 45.9722 71.687 45.8349 71.5804 45.7375C71.4739 45.6313 71.3407 45.5782 71.1808 45.5782C70.8523 45.5782 70.688 45.7154 70.688 45.9898V47.8888L71.3274 47.4108C71.6026 47.2072 71.7403 46.7867 71.7403 46.1492ZM69.6891 50.1862V46.0297C69.6891 45.1621 70.1997 44.7283 71.2208 44.7283C72.2508 44.7283 72.7658 45.2152 72.7658 46.189C72.7658 46.5786 72.6947 46.9372 72.5528 47.2647C72.4107 47.5923 72.2153 47.8401 71.9666 48.0084L70.688 48.8849V50.0933C70.688 50.4652 70.8612 50.651 71.2074 50.651C71.5626 50.651 71.7403 50.443 71.7403 50.0269V49.7215L71.7003 49.0973C71.8157 49.0707 71.9312 49.0575 72.0466 49.0575C72.1709 49.0575 72.2863 49.0751 72.3929 49.1106C72.606 49.1637 72.7126 49.2655 72.7126 49.416V50.3722C72.7126 50.7263 72.5705 51.0052 72.2863 51.2088C72.0111 51.4036 71.6426 51.501 71.1808 51.501C70.1864 51.501 69.6891 51.0627 69.6891 50.1862ZM77.2314 45.95C77.2314 45.5162 77.2003 45.1532 77.1382 44.8611C77.4045 44.8256 77.6932 44.8079 78.0039 44.8079C78.1549 44.8079 78.2304 44.8743 78.2304 45.0072V52.3111C78.2304 52.7094 78.0883 53.0104 77.8041 53.214C77.5289 53.4176 77.156 53.5195 76.6853 53.5195C76.2147 53.5195 75.8506 53.431 75.5931 53.2539C75.3356 53.0769 75.2069 52.8334 75.2069 52.5235V52.0321C75.2069 51.8816 75.3135 51.7754 75.5266 51.7134C75.6331 51.6868 75.7441 51.6736 75.8595 51.6736C75.9839 51.6736 76.1037 51.6868 76.2191 51.7134C76.1925 51.9259 76.1792 52.1119 76.1792 52.2712V52.3376C76.1792 52.559 76.3524 52.6696 76.6987 52.6696C77.0539 52.6696 77.2314 52.5147 77.2314 52.2048V50.8901C77.0095 51.1114 76.7208 51.222 76.3657 51.222C76.0193 51.222 75.7397 51.1114 75.5266 50.8901C75.3135 50.6599 75.2069 50.3279 75.2069 49.8941V45.9633C75.2069 45.7774 75.1714 45.6445 75.1004 45.5649C75.0381 45.4852 74.9139 45.4454 74.7274 45.4454C74.7185 45.224 74.7806 45.0514 74.9139 44.9274C75.056 44.7947 75.2513 44.7283 75.4999 44.7283C75.7485 44.7283 75.9262 44.7991 76.0327 44.9408C76.1481 45.0824 76.2058 45.317 76.2058 45.6445V49.8808C76.2058 50.173 76.3212 50.3191 76.5522 50.3191C76.6764 50.3191 76.8052 50.2792 76.9384 50.1995C77.0716 50.111 77.1693 50.0136 77.2314 49.9074V45.95ZM79.1323 50.1464V46.1359C79.1323 45.6932 79.2698 45.348 79.5451 45.1001C79.8204 44.8522 80.1933 44.7283 80.664 44.7283C81.1346 44.7283 81.4986 44.8434 81.7561 45.0735C82.0225 45.3038 82.1557 45.6401 82.1557 46.0828V50.0933C82.1557 50.536 82.0136 50.8813 81.7295 51.1292C81.4542 51.377 81.0813 51.501 80.6107 51.501C80.14 51.501 79.776 51.3859 79.5185 51.1557C79.261 50.9255 79.1323 50.5891 79.1323 50.1464ZM80.1311 46.0828V50.1464C80.1311 50.2969 80.18 50.4253 80.2777 50.5315C80.3754 50.6289 80.4952 50.6776 80.6373 50.6776C80.7883 50.6776 80.9125 50.6289 81.0102 50.5315C81.1079 50.4253 81.1567 50.2969 81.1567 50.1464V46.0828C81.1567 45.9323 81.1079 45.8084 81.0102 45.711C80.9125 45.6048 80.7883 45.5517 80.6373 45.5517C80.4952 45.5517 80.3754 45.6048 80.2777 45.711C80.18 45.8084 80.1311 45.9323 80.1311 46.0828ZM85.1395 45.95C85.1395 45.6136 85.1083 45.2506 85.0462 44.8611C85.3126 44.8256 85.6012 44.8079 85.912 44.8079C86.0629 44.8079 86.1384 44.8743 86.1384 45.0072V50.266C86.1384 50.4518 86.1695 50.5847 86.2316 50.6644C86.3026 50.744 86.4314 50.7839 86.6179 50.7839C86.6268 51.014 86.5646 51.1911 86.4314 51.315C86.3071 51.439 86.1251 51.501 85.8853 51.501C85.5301 51.501 85.3037 51.3637 85.206 51.0893C84.9308 51.3637 84.62 51.501 84.2737 51.501C83.9274 51.501 83.6477 51.3859 83.4346 51.1557C83.2214 50.9166 83.1149 50.5802 83.1149 50.1464V45.9633C83.1149 45.7774 83.0794 45.6445 83.0083 45.5649C82.9462 45.4852 82.8219 45.4454 82.6354 45.4454C82.6265 45.224 82.6887 45.0514 82.8219 44.9274C82.9639 44.7947 83.1593 44.7283 83.4079 44.7283C83.6566 44.7283 83.8341 44.7991 83.9406 44.9408C84.0562 45.0824 84.1139 45.317 84.1139 45.6445V50.1331C84.1139 50.443 84.2426 50.5979 84.5001 50.5979C84.6333 50.5979 84.7576 50.5492 84.8731 50.4518C84.9974 50.3456 85.0862 50.2349 85.1395 50.1199V45.95ZM88.3034 50.2792C88.3034 50.7041 88.3345 51.0583 88.3966 51.3416C88.1303 51.3947 87.8417 51.4213 87.5309 51.4213C87.3799 51.4213 87.3045 51.3549 87.3045 51.222V45.9633C87.3045 45.7774 87.2689 45.6445 87.1978 45.5649C87.1357 45.4852 87.0114 45.4454 86.8249 45.4454C86.8161 45.2152 86.8738 45.0382 86.9981 44.9142C87.1313 44.7903 87.3178 44.7283 87.5575 44.7283C87.9126 44.7283 88.1347 44.9053 88.2234 45.2595C88.4455 44.9053 88.7607 44.7283 89.1692 44.7283C89.8973 44.7283 90.2613 45.0779 90.2613 45.7774V47.1054C90.2613 47.2559 90.1548 47.3577 89.9417 47.4108C89.8351 47.4462 89.7197 47.4639 89.5953 47.4639C89.4799 47.4639 89.3645 47.4507 89.249 47.4241C89.2757 47.2293 89.289 47.0212 89.289 46.7999V46.1227C89.289 45.8305 89.1559 45.6844 88.8894 45.6844C88.7651 45.6844 88.6497 45.7419 88.5432 45.8571C88.4366 45.9722 88.3567 46.1005 88.3034 46.2422V50.2792ZM94.502 45.711H93.9826C93.8316 45.711 93.7074 45.7597 93.6097 45.8571C93.5209 45.9456 93.4765 46.0651 93.4765 46.2157V50.1331C93.4765 50.443 93.6053 50.5979 93.8628 50.5979C93.9959 50.5979 94.1203 50.5492 94.2357 50.4518C94.3599 50.3456 94.4488 50.2349 94.502 50.1199V45.711ZM94.502 43.1347C94.502 42.8691 94.4621 42.5991 94.3822 42.3247C94.6486 42.183 94.9327 42.1121 95.2346 42.1121C95.4122 42.1121 95.501 42.1786 95.501 42.3113V50.266C95.501 50.4518 95.5321 50.5847 95.5942 50.6644C95.6653 50.744 95.794 50.7839 95.9805 50.7839C95.9894 51.014 95.9272 51.1911 95.794 51.315C95.6697 51.439 95.4877 51.501 95.248 51.501C94.8928 51.501 94.6663 51.3637 94.5686 51.0893C94.2934 51.3637 93.9826 51.501 93.6363 51.501C93.29 51.501 93.0103 51.3859 92.7972 51.1557C92.5841 50.9166 92.4776 50.5802 92.4776 50.1464V46.2688C92.4776 45.8261 92.6151 45.4808 92.8905 45.2329C93.1657 44.9851 93.5386 44.8611 94.0092 44.8611H94.502V43.1347ZM97.842 48.938C97.5489 49.1328 97.4024 49.4603 97.4024 49.9207C97.4024 50.3722 97.5401 50.5979 97.8153 50.5979C98.0995 50.5979 98.3214 50.4386 98.4813 50.1199V48.513L97.842 48.938ZM97.9885 44.7283C98.983 44.7283 99.4803 45.1665 99.4803 46.043V50.266C99.4803 50.4518 99.5113 50.5847 99.5735 50.6644C99.6445 50.744 99.7732 50.7839 99.9597 50.7839C99.9686 51.014 99.9064 51.1911 99.7732 51.315C99.6489 51.439 99.467 51.501 99.2272 51.501C98.8543 51.501 98.6278 51.3637 98.5479 51.0893C98.2726 51.3637 97.9485 51.501 97.5756 51.501C97.2026 51.501 96.9052 51.3593 96.6832 51.0761C96.4612 50.7927 96.3502 50.4121 96.3502 49.9339C96.3502 49.208 96.6566 48.6591 97.2693 48.2873L98.4813 47.5701V46.1359C98.4813 45.7641 98.3037 45.5782 97.9485 45.5782C97.6022 45.5782 97.4291 45.7862 97.4291 46.2023V46.6406L97.4691 47.2647C97.3536 47.2913 97.2337 47.3046 97.1094 47.3046C96.9939 47.3046 96.883 47.2869 96.7764 47.2515C96.5633 47.1983 96.4568 47.0965 96.4568 46.946V45.8571C96.4568 45.503 96.5944 45.2285 96.8697 45.0338C97.1538 44.8301 97.5268 44.7283 97.9885 44.7283ZM102.582 45.95C102.582 45.5162 102.551 45.1532 102.489 44.8611C102.755 44.8256 103.044 44.8079 103.355 44.8079C103.506 44.8079 103.581 44.8743 103.581 45.0072V52.3111C103.581 52.7094 103.439 53.0104 103.155 53.214C102.88 53.4176 102.507 53.5195 102.036 53.5195C101.566 53.5195 101.201 53.431 100.944 53.2539C100.686 53.0769 100.558 52.8334 100.558 52.5235V52.0321C100.558 51.8816 100.664 51.7754 100.877 51.7134C100.984 51.6868 101.095 51.6736 101.21 51.6736C101.335 51.6736 101.455 51.6868 101.57 51.7134C101.543 51.9259 101.53 52.1119 101.53 52.2712V52.3376C101.53 52.559 101.703 52.6696 102.05 52.6696C102.405 52.6696 102.582 52.5147 102.582 52.2048V50.8901C102.36 51.1114 102.072 51.222 101.716 51.222C101.37 51.222 101.091 51.1114 100.877 50.8901C100.664 50.6599 100.558 50.3279 100.558 49.8941V45.9633C100.558 45.7774 100.522 45.6445 100.451 45.5649C100.389 45.4852 100.265 45.4454 100.078 45.4454C100.069 45.224 100.131 45.0514 100.265 44.9274C100.407 44.7947 100.602 44.7283 100.851 44.7283C101.099 44.7283 101.277 44.7991 101.384 44.9408C101.499 45.0824 101.557 45.317 101.557 45.6445V49.8808C101.557 50.173 101.672 50.3191 101.903 50.3191C102.027 50.3191 102.156 50.2792 102.289 50.1995C102.422 50.111 102.52 50.0136 102.582 49.9074V45.95Z" fill="#6460BE"/>
</svg>
