<svg width="92" height="48" viewBox="0 0 92 48" fill="none" xmlns="http://www.w3.org/2000/svg">
<path d="M34.2835 28.3881C35.3738 26.0469 35.7937 23.3868 35.3891 20.8111C35.0412 18.5962 34.3133 16.7808 33.1641 15.261C32.2013 13.9879 30.9448 12.9381 29.3225 12.0517C27.4032 11.0029 25.1673 10.4877 22.8569 10.5617C20.5317 10.6361 18.2258 11.3069 16.1886 12.5014C13.8108 13.8956 12.1016 15.7422 11.1086 17.9899C11.0155 18.2006 10.929 18.4146 10.8481 18.6318C10.7531 18.7746 10.6965 18.9391 10.6821 19.1084C10.1631 20.7097 9.96155 22.4888 10.0677 24.5098C10.1265 25.6321 10.3631 26.7532 10.7707 27.8418C10.8365 28.0176 10.907 28.1919 10.9812 28.3647C10.9833 28.3696 10.9853 28.3744 10.9874 28.3793C11.3572 29.2373 11.8297 30.0578 12.3967 30.8248C13.0777 31.7457 13.8792 32.5688 14.779 33.271C15.7002 33.99 16.7056 34.5673 17.7671 34.9866C19.2215 35.5614 20.7958 35.8531 22.4054 35.8531C23.1175 35.8531 23.8365 35.796 24.5551 35.6811C26.8824 35.3089 29.0353 34.3584 30.7813 32.9326L30.7813 32.9326C32.2409 31.7405 33.4059 30.2198 34.2181 28.5263C34.2434 28.4818 34.2653 28.4356 34.2835 28.3881ZM33.3943 21.1257C33.4128 21.2433 33.4292 21.3613 33.4437 21.4796C30.8454 22.6118 28.0283 23.9364 25.2422 25.2605L33.1454 19.9017C33.2444 20.2919 33.3274 20.6994 33.3943 21.1257ZM32.7896 26.7411C32.7313 26.896 32.6694 27.0489 32.6048 27.2003C31.226 27.6561 28.8659 28.5454 26.4398 29.5245C26.5377 29.453 26.6354 29.3816 26.7332 29.3102C29.1673 27.532 31.667 25.7059 33.4283 24.1965C33.3158 25.0565 33.1025 25.9113 32.7896 26.7411ZM32.3677 17.7895L21.6474 22.5449L31.1865 16.0304C31.315 16.1775 31.4377 16.3281 31.5545 16.4826C31.8614 16.8884 32.1319 17.3232 32.3677 17.7895ZM14.4344 30.146C14.2908 29.9754 14.1522 29.8003 14.0194 29.6206C13.7442 29.2484 13.4971 28.8639 13.2783 28.4698L23.7702 23.8157L14.4344 30.146ZM12.5678 19.8444C15.1566 18.3028 18.1944 16.7564 20.8706 15.4714C20.2792 15.8766 19.6866 16.2659 19.1276 16.6331C18.5734 16.9971 18.05 17.3409 17.5711 17.6706C16.238 18.5881 14.9439 19.4981 13.7663 20.5409C13.1349 21.1 12.5859 21.6573 12.1135 22.2194C12.1875 21.3713 12.3385 20.5826 12.5678 19.8444ZM12.218 25.5397C13.6601 24.7588 15.0652 23.9758 16.4247 23.218C17.5805 22.5738 18.7208 21.9382 19.8642 21.3144L12.4184 26.3994C12.3376 26.1151 12.2708 25.8283 12.218 25.5397ZM29.3995 14.4644C24.7617 16.3369 20.8328 18.454 16.8088 20.6897C17.4138 20.2405 18.0531 19.7933 18.7145 19.3381C19.1755 19.0208 19.69 18.6828 20.2348 18.3249C21.4468 17.5288 22.8206 16.6264 24.0357 15.663C25.1779 14.7573 26.0348 13.9098 26.6338 13.0913C27.2342 13.2842 27.8109 13.5301 28.3556 13.8278C28.7269 14.0306 29.0743 14.2425 29.3995 14.4644ZM17.2086 14.2474C18.7281 13.3564 20.4199 12.8054 22.1436 12.6348C19.8839 13.6833 17.114 15.0233 14.4775 16.4444C14.4988 16.4204 14.5198 16.3963 14.5414 16.3725C15.2622 15.5774 16.1596 14.8625 17.2086 14.2474ZM16.1313 31.7605C18.839 30.549 21.7278 29.1734 24.5357 27.8363C25.2826 27.4807 26.0351 27.1223 26.7883 26.7651C26.3743 27.0686 25.9579 27.3728 25.5435 27.6756C22.745 29.7199 20.0986 31.6531 18.5282 33.1125C18.5215 33.1099 18.5147 33.1074 18.5079 33.1047C17.6683 32.773 16.8695 32.3209 16.1313 31.7605ZM21.61 33.7985C22.8641 33.2112 24.5402 32.4847 26.4715 31.6951C26.5528 31.6619 26.6345 31.6285 26.7159 31.5954C25.8868 32.2622 25.0564 32.9648 24.2848 33.6734C23.3997 33.8185 22.499 33.8617 21.61 33.7985Z" fill="#F9B800"/>
<path d="M22.786 8.47435C23.3436 8.47435 23.7957 8.02149 23.7957 7.46283V1.00957C23.7957 0.450905 23.3436 -0.00195312 22.786 -0.00195312C22.2284 -0.00195312 21.7764 0.450905 21.7764 1.00957V7.46283C21.7764 8.02149 22.2284 8.47435 22.786 8.47435Z" fill="#F9B800"/>
<path d="M15.9202 9.11947C16.0812 9.50901 16.4571 9.74415 16.8533 9.74415C16.9821 9.74415 17.113 9.71931 17.2393 9.66688C17.7545 9.45309 17.9991 8.8614 17.7857 8.34527L16.6048 5.48895C16.3914 4.97286 15.8009 4.72773 15.2857 4.94152C14.7705 5.15531 14.5258 5.747 14.7392 6.26313L15.9202 9.11947Z" fill="#F9B800"/>
<path d="M11.1378 12.8954C11.3349 13.0929 11.5933 13.1917 11.8517 13.1917C12.1101 13.1917 12.3685 13.0929 12.5656 12.8954C12.9599 12.5004 12.9599 11.8599 12.5656 11.4649L8.01091 6.90172C7.61663 6.50671 6.97734 6.50673 6.58308 6.90172C6.18878 7.29673 6.18878 7.9372 6.58308 8.33221L11.1378 12.8954Z" fill="#F9B800"/>
<path d="M4.625 16.7461L8.17012 18.2172C8.2965 18.2697 8.42731 18.2945 8.5561 18.2945C8.95228 18.2945 9.32825 18.0593 9.48927 17.6698C9.70266 17.1537 9.45801 16.562 8.94284 16.3482L5.39774 14.877C4.88265 14.6633 4.29199 14.9084 4.07857 15.4245C3.8652 15.9406 4.10985 16.5323 4.625 16.7461Z" fill="#F9B800"/>
<path d="M8.45992 23.2625C8.45992 22.7039 8.00787 22.251 7.45026 22.251H1.00892C0.451289 22.251 -0.000732422 22.7039 -0.000732422 23.2625C-0.000732422 23.8211 0.451289 24.274 1.00892 24.274H7.45026C8.00787 24.274 8.45992 23.8211 8.45992 23.2625Z" fill="#F9B800"/>
<path d="M28.3391 9.66685C28.4655 9.7193 28.5963 9.74411 28.7251 9.74411C29.1213 9.74411 29.4973 9.50895 29.6583 9.11944L30.8392 6.26312C31.0526 5.747 30.808 5.1553 30.2928 4.94151C29.7776 4.72775 29.187 4.97282 28.9736 5.48895L27.7927 8.34526C27.5793 8.86136 27.824 9.45306 28.3391 9.66685Z" fill="#F9B800"/>
<path d="M33.7242 13.1916C33.9826 13.1916 34.241 13.0929 34.4382 12.8954L38.9929 8.33222C39.3872 7.93721 39.3872 7.29674 38.9929 6.90173C38.5986 6.50672 37.9593 6.50672 37.5651 6.90173L33.0103 11.4649C32.616 11.8599 32.616 12.5004 33.0103 12.8954C33.2074 13.0929 33.4658 13.1916 33.7242 13.1916Z" fill="#F9B800"/>
<path d="M36.0891 17.6698C36.2501 18.0594 36.626 18.2945 37.0223 18.2945C37.151 18.2945 37.2819 18.2697 37.4082 18.2173L40.9534 16.7461C41.4685 16.5323 41.7132 15.9406 41.4998 15.4245C41.2864 14.9084 40.6957 14.6633 40.1806 14.877L36.6355 16.3482C36.1203 16.562 35.8757 17.1537 36.0891 17.6698Z" fill="#F9B800"/>
<path d="M44.5667 22.251H38.1254C37.5678 22.251 37.1157 22.7039 37.1157 23.2625C37.1157 23.8211 37.5678 24.274 38.1254 24.274H44.5667C45.1243 24.274 45.5764 23.8211 45.5764 23.2625C45.5764 22.7039 45.1243 22.251 44.5667 22.251Z" fill="#F9B800"/>
<path d="M22.786 38.0518C22.2284 38.0518 21.7764 38.5046 21.7764 39.0633V45.5165C21.7764 46.0752 22.2284 46.5281 22.786 46.5281C23.3436 46.5281 23.7957 46.0752 23.7957 45.5165V39.0633C23.7957 38.5046 23.3436 38.0518 22.786 38.0518Z" fill="#F9B800"/>
<path d="M17.2393 36.8595C16.7242 36.6457 16.1335 36.8908 15.9202 37.4069L14.7392 40.2632C14.5258 40.7794 14.7705 41.371 15.2857 41.5848C15.412 41.6373 15.5428 41.6621 15.6716 41.6621C16.0678 41.6621 16.4438 41.4269 16.6048 41.0374L17.7858 38.1811C17.9991 37.665 17.7545 37.0733 17.2393 36.8595Z" fill="#F9B800"/>
<path d="M11.1378 33.6303L6.58308 38.1934C6.18878 38.5884 6.18878 39.2289 6.58308 39.6239C6.78022 39.8214 7.03862 39.9202 7.29701 39.9202C7.5554 39.9202 7.8138 39.8214 8.01094 39.6239L12.5657 35.0608C12.96 34.6657 12.96 34.0253 12.5657 33.6303C12.1713 33.2352 11.532 33.2352 11.1378 33.6303Z" fill="#F9B800"/>
<path d="M9.48927 28.8561C9.2759 28.34 8.68538 28.0949 8.17013 28.3087L4.625 29.7798C4.10983 29.9936 3.8652 30.5853 4.07858 31.1014C4.23964 31.491 4.61557 31.7261 5.01177 31.7261C5.14051 31.7261 5.27139 31.7013 5.39775 31.6488L8.94285 30.1777C9.45802 29.964 9.70267 29.3723 9.48927 28.8561Z" fill="#F9B800"/>
<path d="M29.6583 37.4069C29.4449 36.8908 28.8544 36.6457 28.3391 36.8595C27.824 37.0733 27.5793 37.6649 27.7927 38.1811L28.9737 41.0374C29.1347 41.4269 29.5106 41.6621 29.9068 41.6621C30.0356 41.6621 30.1664 41.6373 30.2928 41.5848C30.808 41.371 31.0526 40.7793 30.8392 40.2632L29.6583 37.4069Z" fill="#F9B800"/>
<path d="M34.4382 33.6303C34.0439 33.2352 33.4046 33.2353 33.0103 33.6303C32.616 34.0253 32.616 34.6657 33.0103 35.0607L37.5651 39.6239C37.7622 39.8214 38.0206 39.9202 38.279 39.9202C38.5373 39.9202 38.7958 39.8214 38.9929 39.6239C39.3872 39.2289 39.3872 38.5884 38.9929 38.1934L34.4382 33.6303Z" fill="#F9B800"/>
<path d="M40.9534 29.7798L37.4082 28.3087C36.8931 28.0949 36.3024 28.34 36.0891 28.8561C35.8757 29.3723 36.1203 29.964 36.6355 30.1777L40.1806 31.6489C40.307 31.7013 40.4378 31.7261 40.5666 31.7261C40.9628 31.7261 41.3388 31.491 41.4998 31.1014C41.7132 30.5853 41.4685 29.9936 40.9534 29.7798Z" fill="#F9B800"/>
<path d="M50.5084 17.9768V11.8958C50.5084 10.3943 51.0179 9.22318 52.0371 8.38234C53.0562 7.54151 54.42 7.12109 56.1286 7.12109C57.8671 7.12109 59.2459 7.51148 60.265 8.29225C61.2842 9.043 61.7937 10.034 61.7937 11.2652V16.8507C61.7937 17.3913 61.404 17.7666 60.6247 17.9768C60.2051 18.097 59.7854 18.157 59.3658 18.157C58.9461 18.157 58.5265 18.112 58.1069 18.0219C58.1968 17.3012 58.2417 16.5354 58.2417 15.7246V11.8958C58.2417 11.3253 58.0469 10.8898 57.6573 10.5895C57.2676 10.2592 56.758 10.094 56.1286 10.094C55.4991 10.094 54.9895 10.2592 54.5999 10.5895C54.2402 10.8898 54.0603 11.3253 54.0603 11.8958V17.1661C54.0603 18.2171 54.405 18.9528 55.0944 19.3732L59.8604 22.4363C61.2092 23.2771 61.8836 24.5684 61.8836 26.3101V32.5263C61.8836 34.0278 61.3591 35.1989 60.3099 36.0398C59.2608 36.8806 57.8671 37.301 56.1286 37.301C54.42 37.301 53.0412 36.9256 51.9921 36.1748C50.943 35.3941 50.4185 34.3881 50.4185 33.1569V27.5714C50.4185 27.0309 50.8081 26.6554 51.5875 26.4452C52.0071 26.3251 52.4267 26.265 52.8464 26.265C53.266 26.265 53.6857 26.3101 54.1053 26.4002C54.0154 27.1209 53.9704 27.8866 53.9704 28.6975V32.5263C53.9704 33.0668 54.1802 33.5022 54.5999 33.8325C55.0195 34.1629 55.5441 34.328 56.1735 34.328C56.803 34.328 57.3125 34.1629 57.7022 33.8325C58.1219 33.5022 58.3317 33.0668 58.3317 32.5263V27.4362C58.3317 26.265 57.927 25.4242 57.1177 24.9137L52.3518 21.8057C51.1229 21.0249 50.5084 19.7486 50.5084 17.9768ZM72.9196 11.2652C72.9196 9.79374 72.8146 8.56252 72.6048 7.57154C73.624 7.45142 74.658 7.39136 75.7072 7.39136C76.2168 7.39136 76.4715 7.61659 76.4715 8.06703V32.5263C76.4715 34.0278 75.962 35.1989 74.9428 36.0398C73.9237 36.8806 72.5449 37.301 70.8063 37.301C69.0979 37.301 67.734 36.9256 66.7148 36.1748C65.6957 35.3941 65.1862 34.3881 65.1862 33.1569V30.0939C65.1862 29.5534 65.5759 29.1779 66.3551 28.9677C66.7748 28.8476 67.1945 28.7875 67.6141 28.7875C68.0337 28.7875 68.4534 28.8326 68.8731 28.9227C68.7831 29.6434 68.7382 30.4091 68.7382 31.22V32.5263C68.7382 33.0968 68.933 33.5473 69.3226 33.8776C69.7123 34.1779 70.2219 34.328 70.8514 34.328C71.4808 34.328 71.9754 34.1779 72.3351 33.8776C72.7248 33.5473 72.9196 33.0968 72.9196 32.5263V25.4993C72.1402 26.2801 71.0911 26.6705 69.7723 26.6705C66.7148 26.6705 65.1862 25.2291 65.1862 22.3462V11.4003C65.1862 10.7697 65.0513 10.3343 64.7816 10.094C64.5417 9.82377 64.1071 9.68864 63.4776 9.68864C63.4776 7.97694 64.4368 7.12109 66.3551 7.12109C67.9439 7.12109 68.7382 8.15712 68.7382 10.2292V22.0759C68.7382 23.157 69.2777 23.6975 70.3568 23.6975C71.4658 23.6975 72.32 23.172 72.9196 22.1209V11.2652ZM86.0068 10.5445C85.1976 10.5445 84.3882 10.9499 83.5789 11.7607V33.8776H85.6471C86.2766 33.8776 86.7862 33.7275 87.1759 33.4271C87.5655 33.0968 87.7603 32.6464 87.7603 32.0759V12.2562C87.7603 11.1151 87.1759 10.5445 86.0068 10.5445ZM86.8611 7.57154C89.8286 7.57154 91.3123 9.043 91.3123 11.9859V32.0759C91.3123 33.5773 90.7877 34.7485 89.7386 35.5893C88.7195 36.4302 87.3257 36.8505 85.5572 36.8505H80.027V11.9409C80.027 11.2802 79.9071 10.8147 79.6673 10.5445C79.4275 10.2442 78.9928 10.094 78.3634 10.094C78.3334 9.31327 78.5433 8.69766 78.9928 8.24721C79.4425 7.79677 80.1619 7.57154 81.151 7.57154C82.1702 7.57154 82.8745 8.06703 83.2642 9.05801C84.4332 8.06703 85.6322 7.57154 86.8611 7.57154Z" fill="#6460BE"/>
<path d="M52.1047 44.4916C52.1047 44.8457 52.2618 45.0228 52.576 45.0228C52.8981 45.0228 53.0591 44.83 53.0591 44.4444V43.9604C53.0591 43.6693 52.957 43.4607 52.7528 43.3348L51.7159 42.7091C51.4096 42.5203 51.2564 42.2015 51.2564 41.753V40.9267C51.2564 40.5805 51.3664 40.301 51.5863 40.0886C51.8141 39.8683 52.144 39.7581 52.576 39.7581C53.0159 39.7581 53.3498 39.8486 53.5776 40.0296C53.8053 40.2106 53.9192 40.4585 53.9192 40.7733V41.5169C53.9192 41.6507 53.825 41.7412 53.6365 41.7884C53.5422 41.8199 53.4401 41.8356 53.3301 41.8356C53.228 41.8356 53.1259 41.8238 53.0238 41.8002C53.0473 41.6271 53.0591 41.4422 53.0591 41.2454V41.0683C53.0591 40.6985 52.9099 40.5135 52.6114 40.5135C52.2972 40.5135 52.1401 40.6788 52.1401 41.0093V41.5523C52.1401 41.8278 52.2265 42.0127 52.3993 42.1071L53.4362 42.7091C53.7739 42.8981 53.9428 43.2207 53.9428 43.6771V44.5624C53.9428 44.9401 53.8289 45.2392 53.6011 45.4596C53.3812 45.6721 53.0552 45.7783 52.6232 45.7783C52.1911 45.7783 51.8534 45.6917 51.6099 45.5185C51.3664 45.3454 51.2446 45.0976 51.2446 44.7749V43.9958C51.2446 43.8621 51.3389 43.7716 51.5274 43.7243C51.6217 43.6928 51.7199 43.6771 51.822 43.6771C51.9319 43.6771 52.038 43.6889 52.1401 43.7125C52.1165 43.8856 52.1047 44.0705 52.1047 44.2673V44.4916ZM55.8079 43.5001C55.5487 43.6732 55.4191 43.9643 55.4191 44.3735C55.4191 44.7749 55.5409 44.9755 55.7844 44.9755C56.0357 44.9755 56.2321 44.8339 56.3735 44.5506V43.1223L55.8079 43.5001ZM55.9375 39.7581C56.8173 39.7581 57.2572 40.1476 57.2572 40.9267V44.6805C57.2572 44.8457 57.2847 44.9638 57.3396 45.0346C57.4025 45.1054 57.5164 45.1408 57.6813 45.1408C57.6892 45.3454 57.6342 45.5028 57.5164 45.613C57.4064 45.7232 57.2454 45.7783 57.0333 45.7783C56.7034 45.7783 56.5031 45.6563 56.4324 45.4123C56.1889 45.6563 55.9022 45.7783 55.5723 45.7783C55.2424 45.7783 54.9792 45.6523 54.7829 45.4006C54.5865 45.1487 54.4883 44.8103 54.4883 44.3853C54.4883 43.74 54.7593 43.2521 55.3013 42.9216L56.3735 42.2842V41.0093C56.3735 40.6788 56.2164 40.5135 55.9022 40.5135C55.5958 40.5135 55.4427 40.6985 55.4427 41.0683V41.4579L55.478 42.0127C55.3759 42.0363 55.2699 42.0481 55.1599 42.0481C55.0578 42.0481 54.9596 42.0324 54.8653 42.0009C54.6768 41.9537 54.5826 41.8632 54.5826 41.7294V40.7615C54.5826 40.4467 54.7043 40.2027 54.9478 40.0296C55.1992 39.8486 55.5291 39.7581 55.9375 39.7581ZM58.3753 39.7581C58.5952 39.7581 58.7523 39.8211 58.8466 39.947C58.9487 40.0728 58.9998 40.3562 58.9998 40.7968C58.9998 41.2297 59.0548 41.8828 59.1647 42.7563C59.2747 43.6299 59.3965 44.346 59.53 44.9048C59.8913 43.2915 60.0719 41.8632 60.0719 40.6198L60.0484 39.8526C60.1976 39.8211 60.339 39.8053 60.4726 39.8053C60.6139 39.8053 60.7396 39.8211 60.8497 39.8526C60.9674 39.884 61.0263 39.9627 61.0263 40.0886C61.0263 40.7576 60.9478 41.6232 60.7907 42.6856C60.6336 43.7479 60.4569 44.5978 60.2605 45.2353C60.1741 45.5185 60.0327 45.6602 59.8363 45.6602H59.1412C58.9448 45.6602 58.8034 45.5185 58.717 45.2353C58.5442 44.6372 58.3989 43.9053 58.281 43.0397C58.1711 42.1661 58.1161 41.4382 58.1161 40.8559C58.1161 40.6906 58.0847 40.5725 58.0218 40.5018C57.9668 40.4309 57.8569 40.3956 57.6919 40.3956C57.6841 40.1988 57.7391 40.0453 57.8569 39.9351C57.9826 39.8171 58.1554 39.7581 58.3753 39.7581ZM63.4628 41.0211C63.4628 40.8638 63.4156 40.7418 63.3214 40.6552C63.2271 40.5608 63.1093 40.5135 62.9679 40.5135C62.6773 40.5135 62.5319 40.6356 62.5319 40.8795V42.5675L63.0975 42.1426C63.341 41.9616 63.4628 41.5878 63.4628 41.0211ZM61.6483 44.6096V40.9149C61.6483 40.1437 62.0999 39.7581 63.0032 39.7581C63.9144 39.7581 64.37 40.1909 64.37 41.0565C64.37 41.4028 64.3071 41.7216 64.1815 42.0127C64.0558 42.3039 63.883 42.5242 63.663 42.6738L62.5319 43.4528V44.527C62.5319 44.8576 62.6851 45.0228 62.9914 45.0228C63.3056 45.0228 63.4628 44.8378 63.4628 44.468V44.1965L63.4274 43.6417C63.5295 43.618 63.6317 43.6063 63.7337 43.6063C63.8437 43.6063 63.9458 43.622 64.0401 43.6535C64.2286 43.7007 64.3229 43.7912 64.3229 43.925V44.7749C64.3229 45.0897 64.1972 45.3375 63.9458 45.5185C63.7023 45.6917 63.3763 45.7783 62.9679 45.7783C62.0882 45.7783 61.6483 45.3887 61.6483 44.6096ZM68.3203 40.844C68.3203 40.4585 68.2928 40.1358 68.2378 39.8761C68.4735 39.8446 68.7288 39.8289 69.0037 39.8289C69.1372 39.8289 69.204 39.8879 69.204 40.006V46.4983C69.204 46.8524 69.0783 47.12 68.8269 47.301C68.5835 47.482 68.2536 47.5725 67.8372 47.5725C67.4209 47.5725 67.0989 47.4938 66.8711 47.3364C66.6433 47.1791 66.5294 46.9626 66.5294 46.6872V46.2504C66.5294 46.1166 66.6237 46.0222 66.8122 45.9671C66.9064 45.9435 67.0046 45.9317 67.1067 45.9317C67.2167 45.9317 67.3227 45.9435 67.4248 45.9671C67.4013 46.156 67.3895 46.3213 67.3895 46.4629V46.5219C67.3895 46.7187 67.5427 46.8171 67.8491 46.8171C68.1633 46.8171 68.3203 46.6793 68.3203 46.4039V45.2353C68.124 45.432 67.8687 45.5303 67.5544 45.5303C67.2481 45.5303 67.0007 45.432 66.8122 45.2353C66.6237 45.0306 66.5294 44.7355 66.5294 44.3499V40.8559C66.5294 40.6906 66.498 40.5725 66.4352 40.5018C66.3801 40.4309 66.2702 40.3956 66.1052 40.3956C66.0974 40.1988 66.1523 40.0453 66.2702 39.9351C66.3959 39.8171 66.5687 39.7581 66.7886 39.7581C67.0085 39.7581 67.1657 39.8211 67.2599 39.947C67.362 40.0728 67.4131 40.2814 67.4131 40.5725V44.3381C67.4131 44.5978 67.5152 44.7277 67.7194 44.7277C67.8294 44.7277 67.9433 44.6923 68.0611 44.6214C68.1789 44.5428 68.2654 44.4562 68.3203 44.3618V40.844ZM70.0018 44.5742V41.0093C70.0018 40.6158 70.1235 40.309 70.3671 40.0886C70.6105 39.8683 70.9404 39.7581 71.3568 39.7581C71.7731 39.7581 72.0952 39.8604 72.323 40.065C72.5586 40.2696 72.6764 40.5686 72.6764 40.9621V44.527C72.6764 44.9205 72.5507 45.2274 72.2993 45.4478C72.0559 45.668 71.726 45.7783 71.3097 45.7783C70.8933 45.7783 70.5713 45.676 70.3435 45.4713C70.1157 45.2668 70.0018 44.9677 70.0018 44.5742ZM70.8855 40.9621V44.5742C70.8855 44.708 70.9287 44.8221 71.0151 44.9165C71.1015 45.0031 71.2075 45.0464 71.3332 45.0464C71.4667 45.0464 71.5767 45.0031 71.6631 44.9165C71.7495 44.8221 71.7927 44.708 71.7927 44.5742V40.9621C71.7927 40.8283 71.7495 40.7182 71.6631 40.6316C71.5767 40.5372 71.4667 40.49 71.3332 40.49C71.2075 40.49 71.1015 40.5372 71.0151 40.6316C70.9287 40.7182 70.8855 40.8283 70.8855 40.9621ZM75.3159 40.844C75.3159 40.5451 75.2884 40.2224 75.2334 39.8761C75.469 39.8446 75.7243 39.8289 75.9993 39.8289C76.1328 39.8289 76.1995 39.8879 76.1995 40.006V44.6805C76.1995 44.8457 76.2271 44.9638 76.282 45.0346C76.3448 45.1054 76.4588 45.1408 76.6238 45.1408C76.6316 45.3454 76.5766 45.5028 76.4588 45.613C76.3488 45.7232 76.1878 45.7783 75.9757 45.7783C75.6614 45.7783 75.4612 45.6563 75.3748 45.4123C75.1313 45.6563 74.8564 45.7783 74.55 45.7783C74.2436 45.7783 73.9963 45.676 73.8078 45.4713C73.6192 45.2588 73.5249 44.9598 73.5249 44.5742V40.8559C73.5249 40.6906 73.4935 40.5725 73.4306 40.5018C73.3757 40.4309 73.2658 40.3956 73.1008 40.3956C73.0929 40.1988 73.1479 40.0453 73.2658 39.9351C73.3914 39.8171 73.5642 39.7581 73.7841 39.7581C74.0041 39.7581 74.1612 39.8211 74.2554 39.947C74.3576 40.0728 74.4086 40.2814 74.4086 40.5725V44.5624C74.4086 44.8378 74.5225 44.9755 74.7503 44.9755C74.8681 44.9755 74.9781 44.9323 75.0803 44.8457C75.1902 44.7513 75.2688 44.6529 75.3159 44.5506V40.844ZM78.1147 44.6923C78.1147 45.07 78.1423 45.3848 78.1972 45.6366C77.9616 45.6838 77.7063 45.7074 77.4314 45.7074C77.2978 45.7074 77.2311 45.6484 77.2311 45.5303V40.8559C77.2311 40.6906 77.1997 40.5725 77.1368 40.5018C77.0818 40.4309 76.9719 40.3956 76.8069 40.3956C76.799 40.1909 76.8501 40.0336 76.9601 39.9233C77.0779 39.8132 77.2429 39.7581 77.4549 39.7581C77.7691 39.7581 77.9655 39.9155 78.044 40.2303C78.2404 39.9155 78.5193 39.7581 78.8806 39.7581C79.5247 39.7581 79.8468 40.0689 79.8468 40.6906V41.8711C79.8468 42.0048 79.7525 42.0953 79.564 42.1426C79.4697 42.1741 79.3677 42.1898 79.2576 42.1898C79.1555 42.1898 79.0534 42.178 78.9513 42.1543C78.9749 41.9812 78.9866 41.7963 78.9866 41.5996V40.9976C78.9866 40.7378 78.8689 40.608 78.6331 40.608C78.5232 40.608 78.4211 40.6591 78.3269 40.7615C78.2326 40.8638 78.1619 40.9778 78.1147 41.1038V44.6923ZM83.5982 40.6316H83.1387C83.0051 40.6316 82.8952 40.6749 82.8088 40.7615C82.7302 40.8401 82.6909 40.9464 82.6909 41.0802V44.5624C82.6909 44.8378 82.8049 44.9755 83.0327 44.9755C83.1504 44.9755 83.2605 44.9323 83.3625 44.8457C83.4725 44.7513 83.551 44.6529 83.5982 44.5506V40.6316ZM83.5982 38.3415C83.5982 38.1055 83.5628 37.8655 83.4922 37.6216C83.7278 37.4956 83.9791 37.4326 84.2462 37.4326C84.4033 37.4326 84.4819 37.4917 84.4819 37.6097V44.6805C84.4819 44.8457 84.5093 44.9638 84.5643 45.0346C84.6272 45.1054 84.7411 45.1408 84.906 45.1408C84.9139 45.3454 84.8589 45.5028 84.7411 45.613C84.6311 45.7232 84.4701 45.7783 84.258 45.7783C83.9438 45.7783 83.7435 45.6563 83.6571 45.4123C83.4136 45.6563 83.1387 45.7783 82.8323 45.7783C82.5259 45.7783 82.2785 45.676 82.09 45.4713C81.9015 45.2588 81.8073 44.9598 81.8073 44.5742V41.1274C81.8073 40.7339 81.929 40.427 82.1725 40.2066C82.416 39.9863 82.7459 39.8761 83.1622 39.8761H83.5982V38.3415ZM86.5527 43.5001C86.2935 43.6732 86.1639 43.9643 86.1639 44.3735C86.1639 44.7749 86.2857 44.9755 86.5291 44.9755C86.7805 44.9755 86.9769 44.8339 87.1182 44.5506V43.1223L86.5527 43.5001ZM86.6824 39.7581C87.5621 39.7581 88.002 40.1476 88.002 40.9267V44.6805C88.002 44.8457 88.0294 44.9638 88.0845 45.0346C88.1473 45.1054 88.2611 45.1408 88.4261 45.1408C88.434 45.3454 88.379 45.5028 88.2611 45.613C88.1512 45.7232 87.9902 45.7783 87.7781 45.7783C87.4482 45.7783 87.2479 45.6563 87.1772 45.4123C86.9337 45.6563 86.647 45.7783 86.3171 45.7783C85.9871 45.7783 85.7241 45.6523 85.5276 45.4006C85.3313 45.1487 85.2331 44.8103 85.2331 44.3853C85.2331 43.74 85.5041 43.2521 86.0461 42.9216L87.1182 42.2842V41.0093C87.1182 40.6788 86.9612 40.5135 86.647 40.5135C86.3406 40.5135 86.1875 40.6985 86.1875 41.0683V41.4579L86.2228 42.0127C86.1207 42.0363 86.0147 42.0481 85.9047 42.0481C85.8025 42.0481 85.7044 42.0324 85.6101 42.0009C85.4216 41.9537 85.3274 41.8632 85.3274 41.7294V40.7615C85.3274 40.4467 85.4491 40.2027 85.6926 40.0296C85.9439 39.8486 86.2739 39.7581 86.6824 39.7581ZM90.7461 40.844C90.7461 40.4585 90.7185 40.1358 90.6636 39.8761C90.8992 39.8446 91.1545 39.8289 91.4294 39.8289C91.563 39.8289 91.6298 39.8879 91.6298 40.006V46.4983C91.6298 46.8524 91.5041 47.12 91.2527 47.301C91.0092 47.482 90.6793 47.5725 90.2629 47.5725C89.8466 47.5725 89.5246 47.4938 89.2968 47.3364C89.069 47.1791 88.9552 46.9626 88.9552 46.6872V46.2504C88.9552 46.1166 89.0494 46.0222 89.2379 45.9671C89.3322 45.9435 89.4304 45.9317 89.5324 45.9317C89.6425 45.9317 89.7485 45.9435 89.8506 45.9671C89.8271 46.156 89.8153 46.3213 89.8153 46.4629V46.5219C89.8153 46.7187 89.9684 46.8171 90.2748 46.8171C90.589 46.8171 90.7461 46.6793 90.7461 46.4039V45.2353C90.5497 45.432 90.2944 45.5303 89.9802 45.5303C89.6738 45.5303 89.4264 45.432 89.2379 45.2353C89.0494 45.0306 88.9552 44.7355 88.9552 44.3499V40.8559C88.9552 40.6906 88.9237 40.5725 88.8609 40.5018C88.8059 40.4309 88.6959 40.3956 88.5309 40.3956C88.5231 40.1988 88.5781 40.0453 88.6959 39.9351C88.8216 39.8171 88.9945 39.7581 89.2143 39.7581C89.4343 39.7581 89.5914 39.8211 89.6857 39.947C89.7878 40.0728 89.8388 40.2814 89.8388 40.5725V44.3381C89.8388 44.5978 89.9409 44.7277 90.1452 44.7277C90.2551 44.7277 90.3691 44.6923 90.4868 44.6214C90.6047 44.5428 90.6911 44.4562 90.7461 44.3618V40.844Z" fill="#6460BE"/>
</svg>
